<svg xmlns="http://www.w3.org/2000/svg" viewBox="0 0 1600 900" fill="none">
  <defs>
    <linearGradient id="sea" x1="220" y1="120" x2="1330" y2="870" gradientUnits="userSpaceOnUse">
      <stop stop-color="#8ECBC4"/>
      <stop offset=".46" stop-color="#398F91"/>
      <stop offset="1" stop-color="#164D61"/>
    </linearGradient>
    <linearGradient id="shore" x1="120" y1="525" x2="590" y2="890" gradientUnits="userSpaceOnUse">
      <stop stop-color="#E8E2D2"/>
      <stop offset=".58" stop-color="#C8BEA8"/>
      <stop offset="1" stop-color="#8C8171"/>
    </linearGradient>
    <linearGradient id="foam" x1="330" y1="575" x2="1140" y2="715" gradientUnits="userSpaceOnUse">
      <stop stop-color="#FFFDF5" stop-opacity=".94"/>
      <stop offset=".55" stop-color="#F4FAF4" stop-opacity=".68"/>
      <stop offset="1" stop-color="#E7F4EF" stop-opacity=".08"/>
    </linearGradient>
    <filter id="soft" x="-10%" y="-20%" width="120%" height="140%">
      <feGaussianBlur stdDeviation="12"/>
    </filter>
  </defs>
  <path fill="url(#sea)" d="M0 0h1600v900H0z"/>
  <path fill="#B8DED5" fill-opacity=".19" d="M0 44c174 49 274-16 448 27 139 34 223 99 391 72 153-25 241-99 388-61 134 35 222 15 373-19v169c-153 46-248 56-393 13-166-49-234 59-402 75-180 18-260-79-424-96C235 203 116 279 0 227V44Z"/>
  <path stroke="#D8F1E8" stroke-opacity=".35" stroke-width="4" d="M-54 281c182-63 289-42 423 4 146 50 220 118 390 94 151-21 241-122 391-109 148 12 258 82 501 27"/>
  <path stroke="#D8F1E8" stroke-opacity=".23" stroke-width="3" d="M-31 359c151-39 274-9 405 37 138 49 240 84 380 54 154-34 248-107 379-86 155 25 263 74 489 30"/>
  <path fill="url(#shore)" d="M0 900V595c139-57 249-26 365 31 102 50 158 70 260 54 114-18 162-103 270-91 91 10 130 77 238 67 99-9 171-70 278-35 71 23 127 69 189 66v213H0Z"/>
  <path fill="url(#foam)" d="M0 580c125-41 225-20 343 35 102 48 184 93 295 76 107-16 172-99 267-88 84 10 130 76 228 68 93-7 165-66 263-42 86 21 133 69 204 68v112c-85-20-147-73-234-88-91-15-149 46-245 49-114 4-153-58-232-64-94-8-161 78-277 97-126 21-225-33-333-80C169 668 91 656 0 691V580Z"/>
  <path fill="#F9FCF5" fill-opacity=".72" filter="url(#soft)" d="M0 619c119-34 223-6 333 43 110 50 193 93 306 72 104-19 170-89 262-79 96 10 134 77 236 64 94-12 169-64 255-36 83 26 141 81 208 73v48c-80-9-153-64-226-72-91-10-152 42-242 50-113 10-161-58-242-64-102-8-169 75-286 93-122 18-221-34-331-79C169 684 88 678 0 706V619Z"/>
  <path stroke="#fff" stroke-opacity=".74" stroke-width="6" d="M-24 613c126-40 221-10 340 44 108 49 196 94 314 69 103-21 164-91 261-76 86 13 135 79 232 63 99-17 166-61 258-31 81 26 143 80 233 77"/>
  <path stroke="#fff" stroke-opacity=".5" stroke-width="3" d="M34 665c113-26 190 8 286 48 115 47 190 76 293 56 103-20 166-77 253-65 94 13 139 69 228 55 95-15 160-54 239-26 79 27 143 73 220 73"/>
  <path fill="#F5F0E5" fill-opacity=".45" d="M0 806c119-29 205 3 310 44 97 38 172 61 264 50 79-9 134-44 209-43 86 2 127 43 211 42 95-1 154-36 237-16 71 17 118 48 180 56v-47c-72-16-112-52-190-70-87-20-153 19-233 19-89 0-127-43-217-45-82-2-143 34-219 41-94 9-166-16-264-57C180 731 94 704 0 731v75Z"/>
</svg>
